#!OML:ASF E:\Style6\Style6.ASF
:FULLY-SPECIFIED
:DEGREES
1386
root 0.174148 18.2809 1.4071 12.9635 -2.29287 -4.22282
lowerback 0.631902 -2.23534 2.83937
upperback -8.35716 -2.64172 3.09695
thorax -9.14761 -1.38257 1.92392
lowerneck -10.9268 1.60049 1.81476
upperneck 21.5593 2.48266 -2.85736
head 8.5675 1.01729 -1.00521
rclavicle 4.06018e-014 -3.06128e-014
rhumerus 4.8777 -26.3376 3.95871
rradius 48.9934
rwrist 4.34892
rhand 15.0447 -1.40992
rfingers 7.12502
rthumb 39.8937 -26.6679
lclavicle 4.06018e-014 -3.06128e-014
lhumerus -138.375 -52.2972 176.208
lradius 93.6349
lwrist 36.6024
lhand -8.27417 7.49819
lfingers 7.12502
lthumb 17.645 36.7175
rfemur -6.93614 10.6508 21.6571
rtibia -2.14687e-014
rfoot -2.1428 -11.9588
rtoes 7.45402
lfemur -12.2339 -16.4868 -11.0803
ltibia 15.9548
lfoot -8.12255 19.6167
ltoes -9.45896
1387
root 0.179741 18.2829 1.4044 12.9805 -2.39046 -4.19538
lowerback 0.708646 -2.21385 2.81751
upperback -8.38894 -2.60889 3.10372
thorax -9.22728 -1.36434 1.94604
lowerneck -10.8594 1.61005 1.81597
upperneck 21.6319 2.49848 -2.85937
head 8.58014 1.02461 -1.00509
rclavicle -4.60187e-014 4.09496e-014
rhumerus 5.00539 -26.2988 3.97853
rradius 48.7964
rwrist 4.49544
rhand 15.0105 -1.36788
rfingers 7.12502
rthumb 39.8615 -26.6356
lclavicle -4.60187e-014 4.09496e-014
lhumerus -138.37 -52.2988 176.222
lradius 93.6273
lwrist 36.6172
lhand -8.21592 7.49151
lfingers 7.12502
lthumb 17.7011 36.7058
rfemur -6.98217 10.7902 21.5795
rtibia 1.66979e-014
rfoot -2.04604 -12.1116
rtoes 6.97927
lfemur -12.2097 -16.4488 -11.1513
ltibia 15.9202
lfoot -8.153 19.6445
ltoes -9.12903
1388
root 0.183849 18.2855 1.4005 12.9711 -2.50923 -4.15628
lowerback 0.791136 -2.18403 2.74974
upperback -8.39248 -2.56948 3.09314
thorax -9.27737 -1.34008 1.97336
lowerneck -10.8002 1.62008 1.86643
upperneck 21.6766 2.50141 -2.84867
head 8.58499 1.03131 -1.01021
rclavicle 2.37548e-014 -2.54444e-014
rhumerus 5.13188 -26.3326 3.94874
rradius 48.5596
rwrist 4.78193
rhand 14.9856 -1.49323
rfingers 7.12502
rthumb 39.8381 -26.7679
lclavicle 2.37548e-014 -2.54444e-014
lhumerus -138.375 -52.3316 176.229
lradius 93.5955
lwrist 36.6203
lhand -8.14927 7.47428
lfingers 7.12502
lthumb 17.7652 36.6828
rfemur -7.01265 10.9476 21.4955
rtibia -2.38542e-015
rfoot -1.84905 -12.2777
rtoes 5.42351
lfemur -12.1687 -16.4163 -11.244
ltibia 15.8964
lfoot -8.16307 19.7174
ltoes -8.71397
1389
root 0.188972 18.2858 1.39467 12.9642 -2.60331 -4.18526
lowerback 0.870647 -2.14067 2.76537
upperback -8.37766 -2.50633 3.09862
thorax -9.30936 -1.30967 1.9682
lowerneck -10.8501 1.62466 1.86561
upperneck 21.7897 2.49542 -2.7841
head 8.6317 1.03376 -0.988989
rclavicle -5.46658e-016 -1.23246e-014
rhumerus 5.23884 -26.4577 3.93765
rradius 48.2582
rwrist 5.20488
rhand 15.0043 -1.45605
rfingers 7.12502
rthumb 39.8557 -26.7255
lclavicle -5.46658e-016 -1.23246e-014
lhumerus -138.409 -52.3996 176.262
lradius 93.5954
lwrist 36.6069
lhand -7.99058 7.45817
lfingers 7.12502
lthumb 17.9179 36.6528
rfemur -7.04484 11.0957 21.48
rtibia 4.77083e-015
rfoot -1.76594 -12.411
rtoes 4.4174
lfemur -12.1532 -16.3779 -11.257
ltibia 15.8825
lfoot -7.99095 19.8002
ltoes -9.14585
1390
root 0.194156 18.2845 1.38786 12.9596 -2.6723 -4.2432
lowerback 0.966485 -2.11716 2.77376
upperback -8.36277 -2.46612 3.15053
thorax -9.34858 -1.28786 2.01917
lowerneck -10.8885 1.63885 1.79574
upperneck 21.867 2.51085 -2.6972
head 8.66352 1.04334 -0.946224
rclavicle 4.93731e-014 7.15625e-015
rhumerus 5.41974 -26.5616 3.93746
rradius 47.9546
rwrist 5.66538
rhand 15.0432 -1.38976
rfingers 7.12502
rthumb 39.8923 -26.6482
lclavicle 4.93731e-014 7.15625e-015
lhumerus -138.379 -52.4745 176.269
lradius 93.6134
lwrist 36.5755
lhand -7.84508 7.52238
lfingers 7.12502
lthumb 18.0579 36.7041
rfemur -7.07129 11.2245 21.4907
rtibia -7.15625e-015
rfoot -1.92705 -12.4906
rtoes 5.46434
lfemur -12.1693 -16.2739 -11.2327
ltibia 15.917
lfoot -7.96484 19.8194
ltoes -9.24334
1391
root 0.199175 18.283 1.38125 12.9941 -2.75401 -4.28645
lowerback 1.02827 -2.11564 2.74987
upperback -8.37049 -2.45764 3.21535
thorax -9.39029 -1.27882 2.1041
lowerneck -10.8867 1.67442 1.77519
upperneck 21.9483 2.56418 -2.68774
head 8.69191 1.06708 -0.93409
rclavicle -4.49999e-014 2.06736e-014
rhumerus 5.67983 -26.643 3.86382
rradius 47.6399
rwrist 6.04832
rhand 14.9608 -1.24164
rfingers 7.12502
rthumb 39.8147 -26.5233
lclavicle -4.49999e-014 2.06736e-014
lhumerus -138.248 -52.4656 176.158
lradius 93.6432
lwrist 36.5504
lhand -7.89888 7.52728
lfingers 7.12502
lthumb 18.0061 36.7138
rfemur -7.14486 11.3629 21.4728
rtibia -2.38542e-015
rfoot -2.06022 -12.5721
rtoes 6.55031
lfemur -12.2597 -16.0982 -11.2183
ltibia 16.0223
lfoot -8.00162 19.7553
ltoes -9.45308
1392
root 0.204993 18.2823 1.37451 13.066 -2.812 -4.29911
lowerback 1.02216 -2.09593 2.75934
upperback -8.36569 -2.43009 3.22741
thorax -9.38164 -1.26555 2.10859
lowerneck -10.9963 1.67673 1.7559
upperneck 22.0683 2.55994 -2.63152
head 8.75214 1.06745 -0.911837
rclavicle 1.58282e-014 5.56597e-015
rhumerus 5.84224 -26.8682 3.77417
rradius 47.3287
rwrist 6.41433
rhand 14.8761 -1.11147
rfingers 7.12502
rthumb 39.735 -26.4169
lclavicle 1.58282e-014 5.56597e-015
lhumerus -138.297 -52.5029 176.162
lradius 93.7202
lwrist 36.5367
lhand -8.05428 7.58426
lfingers 7.12502
lthumb 17.8566 36.7845
rfemur -7.258 11.4735 21.4293
rtibia -1.98785e-014
rfoot -1.99016 -12.6559
rtoes 5.96589
lfemur -12.4265 -15.8735 -11.2277
ltibia 16.1637
lfoot -8.04449 19.6362
ltoes -9.61367
1393
root 0.211813 18.2797 1.3695 13.1568 -2.84612 -4.38807
lowerback 0.95959 -2.04405 2.87993
upperback -8.34856 -2.35618 3.22879
thorax -9.33213 -1.23852 2.0324
lowerneck -11.128 1.65408 1.79277
upperneck 22.1952 2.51887 -2.61662
head 8.81934 1.05079 -0.916881
rclavicle 4.35338e-014 7.95139e-016
rhumerus 5.8471 -27.0726 3.80022
rradius 47.0888
rwrist 6.70279
rhand 14.8419 -1.08103
rfingers 7.12502
rthumb 39.7029 -26.396
lclavicle 4.35338e-014 7.95139e-016
lhumerus -138.475 -52.5754 176.292
lradius 93.8225
lwrist 36.5418
lhand -8.21441 7.68745
lfingers 7.12502
lthumb 17.7025 36.9016
rfemur -7.38206 11.5783 21.4615
rtibia 8.74653e-015
rfoot -1.99147 -12.7124
rtoes 6.03543
lfemur -12.6119 -15.7599 -11.1406
ltibia 16.323
lfoot -8.24804 19.6103
ltoes -9.10231
1394
root 0.218052 18.2781 1.36395 13.1325 -2.88221 -4.45258
lowerback 1.04416 -1.99906 2.96416
upperback -8.32139 -2.28692 3.22714
thorax -9.35709 -1.21057 1.98034
lowerneck -11.1562 1.64308 1.79283
upperneck 22.2356 2.49221 -2.56503
head 8.83709 1.04321 -0.902216
rclavicle 1.9456e-014 -4.05521e-014
rhumerus 5.84723 -27.2568 3.82039
rradius 46.8968
rwrist 6.9846
rhand 14.8684 -1.02127
rfingers 7.12502
rthumb 39.7278 -26.3289
lclavicle 1.9456e-014 -4.05521e-014
lhumerus -138.611 -52.5957 176.396
lradius 93.8676
lwrist 36.5213
lhand -8.32947 7.57093
lfingers 7.12502
lthumb 17.5918 36.7951
rfemur -7.38751 11.6765 21.4919
rtibia -7.95139e-015
rfoot -1.96177 -12.7745
rtoes 5.85988
lfemur -12.6698 -15.6921 -11.1062
ltibia 16.4682
lfoot -8.4711 19.559
ltoes -8.38265
